<svg xmlns="http://www.w3.org/2000/svg" viewBox="0 0 80 80" width="80" height="80" fill="none" stroke="#ff9000" stroke-width="3.2" stroke-linecap="round" stroke-linejoin="round">
  <!-- Primary Starburst Sparkle -->
  <path d="M40 8 C40 24 44 28 60 28 C44 28 40 32 40 48 C40 32 36 28 20 28 C36 28 40 24 40 8 Z" fill="#ff9000" fill-opacity="0.12" stroke="#ff9000" stroke-width="3.2" />
  
  <!-- Secondary Sparkle Top Right -->
  <path d="M62 42 C62 49 63.5 50.5 70.5 50.5 C63.5 50.5 62 52 62 59 C62 52 60.5 50.5 53.5 50.5 C60.5 50.5 62 49 62 42 Z" fill="#ff9000" stroke="#ff9000" stroke-width="1.2" />
  
  <!-- Small Sparkle Bottom Left -->
  <path d="M20 48 C20 54 21.5 55.5 27.5 55.5 C21.5 55.5 20 57 20 63 C20 57 18.5 55.5 12.5 55.5 C18.5 55.5 20 54 20 48 Z" fill="#ff9000" stroke="#ff9000" stroke-width="1.2" />
  
  <!-- AI Neural / Logic Connected Nodes -->
  <circle cx="40" cy="66" r="3.5" fill="#ff9000" stroke="none" />
  <path d="M40 48 V62" stroke="#ff9000" stroke-width="2.2" stroke-dasharray="2 3" />
  <path d="M24 59 L36 65" stroke="#ff9000" stroke-width="2" />
  <path d="M56 56 L44 65" stroke="#ff9000" stroke-width="2" />
</svg>
