<svg height="512pt" viewBox="0 0 512 512.00001" width="512pt" xmlns="http://www.w3.org/2000/svg" fill="#ff9000"><path d="m494.933594 42.667969h-170.667969v-17.066407c0-14.140624-11.460937-25.601562-25.597656-25.601562h-85.335938c-14.136719 0-25.597656 11.460938-25.597656 25.601562v17.066407h-170.667969c-9.425781 0-17.066406 7.640625-17.066406 17.066406v17.066406c0 9.425781 7.640625 17.066407 17.066406 17.066407v315.734374c0 4.710938 3.820313 8.53125 8.535156 8.53125h9.386719c4.710938 0 8.53125-3.820312 8.53125-8.53125 0-4.714843-3.820312-8.535156-8.53125-8.535156h-.855469v-307.199218h443.734376v307.199218h-273.921876c-4.710937 0-8.53125 3.820313-8.53125 8.535156 0 4.710938 3.820313 8.53125 8.53125 8.53125h290.988282v17.066407h-329.984375c-.109375 0-.203125.058593-.316407.058593-.636718.058594-1.261718.1875-1.867187.386719-.464844.082031-.917969.207031-1.359375.375-.496094.265625-.964844.582031-1.398438.945313-.441406.28125-.859374.601562-1.246093.957031-.320313.398437-.609375.824219-.851563 1.273437-.339844.480469-.625 1-.855468 1.542969 0 .109375-.136719.1875-.167969.296875l-19.882813 59.734375c-.714844 2.148438-.546875 4.496094.464844 6.519531 1.015625 2.023438 2.792969 3.5625 4.945312 4.277344.855469.285156 1.75.429688 2.652344.433594 3.675782 0 6.9375-2.351562 8.097656-5.835938l17.945313-53.898437h76.800781l-.445312 51.132813c-.035156 4.710937 3.75 8.558593 8.457031 8.601562h.078125c4.6875 0 8.496094-3.777344 8.535156-8.464844l.433594-51.269531h75.945312l17.921876 53.898437c1.160156 3.484376 4.421874 5.835938 8.097656 5.835938.914062 0 1.820312-.144531 2.6875-.433594 2.148437-.714844 3.929687-2.253906 4.941406-4.277344 1.015625-2.023437 1.183594-4.371093.46875-6.519531l-16.144531-48.503906h136.046875c9.425781 0 17.066406-7.640625 17.066406-17.066406v-17.066407c0-9.425781-7.640625-17.066406-17.066406-17.066406v-307.199218c9.425781 0 17.066406-7.640626 17.066406-17.066407v-17.066406c0-9.425781-7.640625-17.066406-17.066406-17.066406zm-290.132813-17.066407c0-4.714843 3.820313-8.535156 8.53125-8.535156h85.335938c4.710937 0 8.53125 3.820313 8.53125 8.535156v17.066407h-102.398438zm281.597657 51.199219h-469.332032v-17.066406h477.867188v17.066406zm0 0"/><path d="m68.265625 204.800781h93.867187c9.425782 0 17.066407-7.640625 17.066407-17.066406v-59.734375c0-9.425781-7.640625-17.066406-17.066407-17.066406h-93.867187c-9.425781 0-17.066406 7.640625-17.066406 17.066406v59.734375c0 9.425781 7.640625 17.066406 17.066406 17.066406zm17.757813-17.066406 16.375-20.480469 16.378906 20.480469zm76.109374-43.4375c-4.644531 1.695313-9.847656.539063-13.34375-2.953125-3.492187-3.496094-4.644531-8.699219-2.953124-13.34375h16.296874zm-33.78125-16.296875c-1.449218 9.328125 1.640626 18.789062 8.316407 25.464844 6.675781 6.675781 16.136719 9.765625 25.464843 8.320312v25.949219h-21.503906l-31.574218-39.46875c-1.675782-1.925781-4.109376-3.03125-6.664063-3.03125s-4.984375 1.105469-6.664063 3.03125l-27.460937 34.347656v-54.613281zm0 0"/><path d="m213.332031 204.800781h93.867188c9.425781 0 17.066406-7.640625 17.066406-17.066406v-59.734375c-.015625-5.316406-2.519531-10.316406-6.765625-13.515625-.085938-.050781-.144531-.136719-.238281-.199219-2.90625-2.167968-6.433594-3.34375-10.0625-3.351562h-93.867188c-3.625.011718-7.152343 1.1875-10.058593 3.351562-.101563.0625-.171876.15625-.273438.222656-4.226562 3.203126-6.714844 8.191407-6.734375 13.492188v59.734375c0 9.425781 7.640625 17.066406 17.066406 17.066406zm93.867188-24.808593-31.941407-22.125 31.941407-22.128907zm-18.773438 7.742187h-56.320312l28.160156-19.484375zm-28.160156-40.253906-28.160156-19.480469h56.320312zm-14.992187 10.386719-31.941407 22.125v-44.253907zm0 0"/><path d="m358.398438 204.800781h93.867187c9.425781 0 17.066406-7.640625 17.066406-17.066406v-59.734375c0-9.425781-7.640625-17.066406-17.066406-17.066406h-93.867187c-9.425782 0-17.066407 7.640625-17.066407 17.066406v59.734375c0 9.425781 7.640625 17.066406 17.066407 17.066406zm59.734374-64c0 7.070313-5.730468 12.800781-12.800781 12.800781-7.066406 0-12.796875-5.730468-12.796875-12.800781 0-7.070312 5.730469-12.800781 12.796875-12.800781 7.070313 0 12.800781 5.730469 12.800781 12.800781zm-59.734374-12.800781h20.0625c-1.945313 3.988281-2.96875 8.363281-2.996094 12.800781 0 16.492188 13.375 29.867188 29.867187 29.867188 16.496094 0 29.867188-13.375 29.867188-29.867188-.023438-4.4375-1.046875-8.8125-2.996094-12.800781h20.0625v59.734375h-93.867187zm0 0"/><path d="m51.199219 332.800781c0 9.425781 7.640625 17.066407 17.066406 17.066407h34.988281c4.710938 0 8.53125-3.820313 8.53125-8.535157 0-4.710937-3.820312-8.53125-8.53125-8.53125h-34.988281v-59.734375h93.867187v26.964844c0 4.714844 3.820313 8.535156 8.535157 8.535156 4.710937 0 8.53125-3.820312 8.53125-8.535156v-26.964844c0-9.425781-7.640625-17.066406-17.066407-17.066406h-93.867187c-9.425781 0-17.066406 7.640625-17.066406 17.066406zm0 0"/><path d="m196.265625 286.464844c0 4.710937 3.820313 8.53125 8.535156 8.53125 4.710938 0 8.53125-3.820313 8.53125-8.53125v-5.660156l31.957031 22.128906-2.429687 1.707031c-3.695313 2.746094-4.542969 7.929687-1.917969 11.714844 2.625 3.78125 7.78125 4.796875 11.644532 2.296875l7.679687-5.324219 28.160156 19.472656h-52.5625c-4.714843 0-8.535156 3.820313-8.535156 8.53125 0 4.714844 3.820313 8.535157 8.535156 8.535157h71.335938c9.425781 0 17.066406-7.640626 17.066406-17.066407v-59.734375c-.0625-4.199218-1.664063-8.230468-4.496094-11.332031l-.050781-.050781c-.472656-.578125-.976562-1.128906-1.511719-1.648438-.246093-.210937-.527343-.355468-.785156-.554687l-.1875-.125c-2.898437-2.164063-6.417969-3.339844-10.035156-3.355469h-93.867188c-3.574219.027344-7.050781 1.179688-9.929687 3.300781-.15625.09375-.292969.207031-.4375.308594-.296875.222656-.613282.402344-.902344.648437-3.65625 3.257813-5.761719 7.914063-5.796875 12.808594zm35.839844-13.398438h56.320312l-28.160156 19.492188zm75.09375 7.75v44.242188l-31.929688-22.125zm0 0"/><path d="m341.332031 332.800781c0 9.425781 7.640625 17.066407 17.066407 17.066407h93.867187c9.425781 0 17.066406-7.640626 17.066406-17.066407v-59.734375c0-9.425781-7.640625-17.066406-17.066406-17.066406h-93.867187c-9.425782 0-17.066407 7.640625-17.066407 17.066406zm34.824219 0 16.378906-20.480469 16.375 20.480469zm76.109375-43.433593c-4.644531 1.691406-9.847656.535156-13.339844-2.957032-3.496093-3.496094-4.648437-8.699218-2.957031-13.34375h16.296875zm-33.78125-16.300782c-1.449219 9.328125 1.640625 18.789063 8.316406 25.464844s16.136719 9.765625 25.464844 8.320312v25.949219h-21.503906l-31.574219-39.46875c-1.675781-1.925781-4.105469-3.03125-6.664062-3.03125-2.554688 0-4.984376 1.105469-6.664063 3.03125l-27.460937 34.347657v-54.613282zm0 0"/><path d="m59.734375 238.933594h110.933594c4.710937 0 8.53125-3.820313 8.53125-8.535156 0-4.710938-3.820313-8.53125-8.53125-8.53125h-110.933594c-4.714844 0-8.535156 3.820312-8.535156 8.53125 0 4.714843 3.820312 8.535156 8.535156 8.535156zm0 0"/><path d="m59.734375 384h9.386719c4.710937 0 8.53125-3.820312 8.53125-8.535156 0-4.710938-3.820313-8.53125-8.53125-8.53125h-9.386719c-4.714844 0-8.535156 3.820312-8.535156 8.53125 0 4.714844 3.820312 8.535156 8.535156 8.535156zm0 0"/><path d="m222.207031 366.933594c-4.710937 0-8.53125 3.820312-8.53125 8.53125 0 4.714844 3.820313 8.535156 8.53125 8.535156h93.527344c4.710937 0 8.53125-3.820312 8.53125-8.535156 0-4.710938-3.820313-8.53125-8.53125-8.53125zm0 0"/><path d="m349.867188 384h110.933593c4.710938 0 8.53125-3.820312 8.53125-8.535156 0-4.710938-3.820312-8.53125-8.53125-8.53125h-110.933593c-4.714844 0-8.535157 3.820312-8.535157 8.53125 0 4.714844 3.820313 8.535156 8.535157 8.535156zm0 0"/><path d="m204.800781 238.933594h110.933594c4.710937 0 8.53125-3.820313 8.53125-8.535156 0-4.710938-3.820313-8.53125-8.53125-8.53125h-110.933594c-4.714843 0-8.535156 3.820312-8.535156 8.53125 0 4.714843 3.820313 8.535156 8.535156 8.535156zm0 0"/><path d="m349.867188 238.933594h110.933593c4.710938 0 8.53125-3.820313 8.53125-8.535156 0-4.710938-3.820312-8.53125-8.53125-8.53125h-110.933593c-4.714844 0-8.535157 3.820312-8.535157 8.53125 0 4.714843 3.820313 8.535156 8.535157 8.535156zm0 0"/><path d="m43.699219 437.09375-18.097657 18.101562c-6.664062 6.664063-6.664062 17.464844 0 24.128907l24.128907 24.140625c3.203125 3.203125 7.542969 5.003906 12.070312 5.003906 4.53125 0 8.871094-1.800781 12.074219-5.003906l114.644531-114.644532v-.058593c.59375-.597657 1.097657-1.285157 1.492188-2.03125l26.863281-51.558594c3.46875-6.613281 2.234375-14.710937-3.046875-19.992187s-13.378906-6.515626-19.992187-3.046876l-51.550782 26.863282c-.347656.230468-.675781.492187-.972656.785156-.394531.214844-.769531.460938-1.117188.742188l-96.480468 96.5625zm18.109375 54.316406-24.140625-24.152344 12.0625-12.0625 24.152343 24.140626zm24.140625-24.140625-24.140625-24.140625 84.476562-84.480468 24.132813 24.140624zm115.828125-139.949219-21.484375 41.242188-19.753907-19.753906zm0 0"/></svg>